# xmcd
#
# Track frame offsets:
#	150
#	22264
#	41033
#	60504
#	74298
#	86423
#	106433
#	117950
#	133094
#	148896
#
# Disc length: 2220 seconds
#
# Revision: 0
# Processed by: cddbd v1.5.2PL0 Copyright (c) Steve Scherf et al.
# Submitted via: EasyCDDAExtractor 9.1.3.1
#
DISCID=9408aa0a
DTITLE=RI FI FI - Ametanoita trellos
DYEAR=1900
DGENRE=
TTITLE0=Ametanoita trellos
TTITLE1=trello ksypnititi
TTITLE2=fila me
TTITLE3=eytyxia
TTITLE4=pou na psaksw na se brw
TTITLE5=kapou tha me breis
TTITLE6=ri fi fi 
TTITLE7=staxtes
TTITLE8=genia tou 60
TTITLE9=eimaste monoi mas
EXTD=
EXTT0=
EXTT1=
EXTT2=
EXTT3=
EXTT4=
EXTT5=
EXTT6=
EXTT7=
EXTT8=
EXTT9=
PLAYORDER=
